<svg xmlns="http://www.w3.org/2000/svg" width="1200" height="630" viewBox="0 0 1200 630">
  <defs>
    <linearGradient id="bg" x1="0" y1="0" x2="1" y2="1">
      <stop offset="0" stop-color="#0a0911"/>
      <stop offset="1" stop-color="#060509"/>
    </linearGradient>
    <linearGradient id="grad" x1="0" y1="0" x2="1" y2="1">
      <stop offset="0" stop-color="#38bdf8"/>
      <stop offset="0.5" stop-color="#6366f1"/>
      <stop offset="1" stop-color="#a855f7"/>
    </linearGradient>
    <radialGradient id="glow1" cx="0.5" cy="0.5" r="0.5">
      <stop offset="0" stop-color="#1d4ed8" stop-opacity="0.55"/>
      <stop offset="1" stop-color="#1d4ed8" stop-opacity="0"/>
    </radialGradient>
    <radialGradient id="glow2" cx="0.5" cy="0.5" r="0.5">
      <stop offset="0" stop-color="#7c3aed" stop-opacity="0.5"/>
      <stop offset="1" stop-color="#7c3aed" stop-opacity="0"/>
    </radialGradient>
  </defs>

  <rect width="1200" height="630" fill="url(#bg)"/>
  <circle cx="1010" cy="120" r="320" fill="url(#glow1)"/>
  <circle cx="160" cy="540" r="300" fill="url(#glow2)"/>

  <g stroke="#ffffff" stroke-opacity="0.04">
    <line x1="0" y1="157" x2="1200" y2="157"/>
    <line x1="0" y1="315" x2="1200" y2="315"/>
    <line x1="0" y1="472" x2="1200" y2="472"/>
    <line x1="300" y1="0" x2="300" y2="630"/>
    <line x1="600" y1="0" x2="600" y2="630"/>
    <line x1="900" y1="0" x2="900" y2="630"/>
  </g>

  <g transform="translate(96 96)">
    <rect width="96" height="96" rx="24" fill="#0a0911" stroke="url(#grad)" stroke-width="2"/>
    <text x="48" y="64" text-anchor="middle" font-family="'Space Grotesk', Arial, sans-serif" font-size="42" font-weight="700" fill="url(#grad)">NZ</text>
  </g>
  <text x="216" y="160" font-family="'Space Grotesk', Arial, sans-serif" font-size="38" font-weight="600" fill="#f5f6fc">NZ-web</text>
  <text x="216" y="196" font-family="Arial, sans-serif" font-size="20" fill="#8b8fa6" letter-spacing="3">PREMIUM WEB STUDIO</text>

  <text x="96" y="370" font-family="'Space Grotesk', Arial, sans-serif" font-size="84" font-weight="700" fill="#f5f6fc">We don't build</text>
  <text x="96" y="466" font-family="'Space Grotesk', Arial, sans-serif" font-size="84" font-weight="700" fill="url(#grad)">websites that win.</text>

  <text x="96" y="548" font-family="Arial, sans-serif" font-size="24" fill="#c4c8da">Websites &#183; Landing Pages &#183; E-Commerce &#183; Web Systems</text>

  <rect x="0" y="624" width="1200" height="6" fill="url(#grad)"/>
</svg>
